<svg xmlns="http://www.w3.org/2000/svg" width="432" height="324" viewBox="0 0 432 324">
<defs>
 <linearGradient id="metal" x1="0" y1="0" x2="1" y2="1"><stop stop-color="#394852"/><stop offset="1" stop-color="#182128"/></linearGradient>
 <linearGradient id="cyan" x1="0" y1="0" x2="1" y2="1"><stop stop-color="#397887"/><stop offset="1" stop-color="#142a32"/></linearGradient>
 <linearGradient id="burn" x1="0" y1="0" x2="0" y2="1"><stop stop-color="#ffca63"/><stop offset="1" stop-color="#ef632d"/></linearGradient>
 <filter id="glow"><feGaussianBlur stdDeviation="2" result="b"/><feMerge><feMergeNode in="b"/><feMergeNode in="SourceGraphic"/></feMerge></filter>
 <g id="tile"><rect width="54" height="54" fill="#10171d"/><path d="M0 53.5H54M53.5 0V54" stroke="#66808c" stroke-opacity=".12"/><circle cx="7" cy="9" r=".8" fill="#7d97a3" opacity=".18"/><circle cx="37" cy="16" r=".6" fill="#7d97a3" opacity=".15"/><circle cx="19" cy="42" r=".7" fill="#7d97a3" opacity=".12"/></g>
 <g id="machine"><ellipse cx="29" cy="43" rx="20" ry="7" fill="#000" opacity=".38"/><rect x="6" y="6" width="42" height="39" rx="6" fill="url(#metal)" stroke="#71828a" stroke-width="1.5"/><rect x="10" y="10" width="34" height="30" rx="4" fill="#11191f" opacity=".7"/></g>
 <g id="belt"><rect x="3" y="11" width="48" height="32" rx="5" fill="#182128" stroke="#526773" stroke-width="1.4"/><path d="M5 16H49M5 38H49" stroke="#647c87" stroke-width="2"/></g>
 <g id="item"><circle cx="27" cy="28" r="17" fill="#000" opacity=".35"/><circle cx="27" cy="27" r="15" fill="currentColor" stroke="#091014" stroke-width="2"/><path d="M19 20l16 14M35 20L19 34" stroke="#0d151a" stroke-width="2.5" opacity=".75"/></g>
</defs><g transform="translate(0 0)"><use href="#tile"/></g><g transform="translate(54 0)"><use href="#tile"/><rect width="54" height="54" fill="#1b252c" opacity=".25"/></g><g transform="translate(108 0)"><use href="#tile"/><rect width="54" height="54" fill="#293640" opacity=".22"/></g><g transform="translate(162 0)"><use href="#tile"/><rect width="54" height="54" fill="#8fa7b5" opacity=".16"/><circle cx="8" cy="9" r="2.0" fill="#8fa7b5" stroke="#11181c" stroke-width=".7"/><circle cx="21" cy="26" r="2.55" fill="#8fa7b5" stroke="#11181c" stroke-width=".7"/><circle cx="34" cy="43" r="3.1" fill="#8fa7b5" stroke="#11181c" stroke-width=".7"/><circle cx="47" cy="21" r="2.0" fill="#8fa7b5" stroke="#11181c" stroke-width=".7"/><circle cx="18" cy="38" r="2.55" fill="#8fa7b5" stroke="#11181c" stroke-width=".7"/><circle cx="31" cy="16" r="3.1" fill="#8fa7b5" stroke="#11181c" stroke-width=".7"/><circle cx="44" cy="33" r="2.0" fill="#8fa7b5" stroke="#11181c" stroke-width=".7"/><circle cx="15" cy="11" r="2.55" fill="#8fa7b5" stroke="#11181c" stroke-width=".7"/><circle cx="28" cy="28" r="3.1" fill="#8fa7b5" stroke="#11181c" stroke-width=".7"/><circle cx="41" cy="45" r="2.0" fill="#8fa7b5" stroke="#11181c" stroke-width=".7"/><circle cx="12" cy="23" r="2.55" fill="#8fa7b5" stroke="#11181c" stroke-width=".7"/></g><g transform="translate(216 0)"><use href="#tile"/><rect width="54" height="54" fill="#d17d51" opacity=".16"/><circle cx="8" cy="9" r="2.0" fill="#d17d51" stroke="#11181c" stroke-width=".7"/><circle cx="21" cy="26" r="2.55" fill="#d17d51" stroke="#11181c" stroke-width=".7"/><circle cx="34" cy="43" r="3.1" fill="#d17d51" stroke="#11181c" stroke-width=".7"/><circle cx="47" cy="21" r="2.0" fill="#d17d51" stroke="#11181c" stroke-width=".7"/><circle cx="18" cy="38" r="2.55" fill="#d17d51" stroke="#11181c" stroke-width=".7"/><circle cx="31" cy="16" r="3.1" fill="#d17d51" stroke="#11181c" stroke-width=".7"/><circle cx="44" cy="33" r="2.0" fill="#d17d51" stroke="#11181c" stroke-width=".7"/><circle cx="15" cy="11" r="2.55" fill="#d17d51" stroke="#11181c" stroke-width=".7"/><circle cx="28" cy="28" r="3.1" fill="#d17d51" stroke="#11181c" stroke-width=".7"/><circle cx="41" cy="45" r="2.0" fill="#d17d51" stroke="#11181c" stroke-width=".7"/><circle cx="12" cy="23" r="2.55" fill="#d17d51" stroke="#11181c" stroke-width=".7"/></g><g transform="translate(270 0)"><use href="#tile"/><rect width="54" height="54" fill="#42494d" opacity=".16"/><circle cx="8" cy="9" r="2.0" fill="#42494d" stroke="#11181c" stroke-width=".7"/><circle cx="21" cy="26" r="2.55" fill="#42494d" stroke="#11181c" stroke-width=".7"/><circle cx="34" cy="43" r="3.1" fill="#42494d" stroke="#11181c" stroke-width=".7"/><circle cx="47" cy="21" r="2.0" fill="#42494d" stroke="#11181c" stroke-width=".7"/><circle cx="18" cy="38" r="2.55" fill="#42494d" stroke="#11181c" stroke-width=".7"/><circle cx="31" cy="16" r="3.1" fill="#42494d" stroke="#11181c" stroke-width=".7"/><circle cx="44" cy="33" r="2.0" fill="#42494d" stroke="#11181c" stroke-width=".7"/><circle cx="15" cy="11" r="2.55" fill="#42494d" stroke="#11181c" stroke-width=".7"/><circle cx="28" cy="28" r="3.1" fill="#42494d" stroke="#11181c" stroke-width=".7"/><circle cx="41" cy="45" r="2.0" fill="#42494d" stroke="#11181c" stroke-width=".7"/><circle cx="12" cy="23" r="2.55" fill="#42494d" stroke="#11181c" stroke-width=".7"/></g><g transform="translate(324 0)"><use href="#tile"/><path d="M7 40l12-11 8 10 13-15 8 7" fill="none" stroke="#7b8e98" stroke-opacity=".4" stroke-width="1.5"/></g><g transform="translate(378 0)"><use href="#tile"/></g><g transform="translate(0 54)"><g transform="rotate(0 27 27)"><use href="#belt"/><path d="M-8 17v20" stroke="#a9bdc6" stroke-opacity=".48"/><path d="M6 17v20" stroke="#a9bdc6" stroke-opacity=".48"/><path d="M20 17v20" stroke="#a9bdc6" stroke-opacity=".48"/><path d="M34 17v20" stroke="#a9bdc6" stroke-opacity=".48"/><path d="M48 17v20" stroke="#a9bdc6" stroke-opacity=".48"/><path d="M62 17v20" stroke="#a9bdc6" stroke-opacity=".48"/><path d="M31 22l9 5-9 5z" fill="#72d9e9" opacity=".85"/></g></g><g transform="translate(54 54)"><g transform="rotate(0 27 27)"><use href="#belt"/><path d="M-1 17v20" stroke="#a9bdc6" stroke-opacity=".48"/><path d="M13 17v20" stroke="#a9bdc6" stroke-opacity=".48"/><path d="M27 17v20" stroke="#a9bdc6" stroke-opacity=".48"/><path d="M41 17v20" stroke="#a9bdc6" stroke-opacity=".48"/><path d="M55 17v20" stroke="#a9bdc6" stroke-opacity=".48"/><path d="M31 22l9 5-9 5z" fill="#72d9e9" opacity=".85"/></g></g><g transform="translate(108 54)"><g transform="rotate(90 27 27)"><use href="#belt"/><path d="M-8 17v20" stroke="#a9bdc6" stroke-opacity=".48"/><path d="M6 17v20" stroke="#a9bdc6" stroke-opacity=".48"/><path d="M20 17v20" stroke="#a9bdc6" stroke-opacity=".48"/><path d="M34 17v20" stroke="#a9bdc6" stroke-opacity=".48"/><path d="M48 17v20" stroke="#a9bdc6" stroke-opacity=".48"/><path d="M62 17v20" stroke="#a9bdc6" stroke-opacity=".48"/><path d="M31 22l9 5-9 5z" fill="#72d9e9" opacity=".85"/></g></g><g transform="translate(162 54)"><g transform="rotate(90 27 27)"><use href="#belt"/><path d="M-1 17v20" stroke="#a9bdc6" stroke-opacity=".48"/><path d="M13 17v20" stroke="#a9bdc6" stroke-opacity=".48"/><path d="M27 17v20" stroke="#a9bdc6" stroke-opacity=".48"/><path d="M41 17v20" stroke="#a9bdc6" stroke-opacity=".48"/><path d="M55 17v20" stroke="#a9bdc6" stroke-opacity=".48"/><path d="M31 22l9 5-9 5z" fill="#72d9e9" opacity=".85"/></g></g><g transform="translate(216 54)"><path d="M27 52V28Q27 27 28 27H52" fill="none" stroke="#10171c" stroke-width="35" stroke-linecap="round" stroke-linejoin="round"/><path d="M27 52V28Q27 27 28 27H52" fill="none" stroke="#33434d" stroke-width="28" stroke-linecap="round" stroke-linejoin="round"/><path d="M27 52V28Q27 27 28 27H52" fill="none" stroke="#76909c" stroke-opacity=".45" stroke-width="17" stroke-linecap="round" stroke-linejoin="round"/></g><g transform="translate(270 54)"><path d="M2 27H26Q27 27 27 28V52" fill="none" stroke="#10171c" stroke-width="35" stroke-linecap="round" stroke-linejoin="round"/><path d="M2 27H26Q27 27 27 28V52" fill="none" stroke="#33434d" stroke-width="28" stroke-linecap="round" stroke-linejoin="round"/><path d="M2 27H26Q27 27 27 28V52" fill="none" stroke="#76909c" stroke-opacity=".45" stroke-width="17" stroke-linecap="round" stroke-linejoin="round"/></g><g transform="translate(324 54)"><path d="M27 2V26Q27 27 26 27H2" fill="none" stroke="#10171c" stroke-width="35" stroke-linecap="round" stroke-linejoin="round"/><path d="M27 2V26Q27 27 26 27H2" fill="none" stroke="#33434d" stroke-width="28" stroke-linecap="round" stroke-linejoin="round"/><path d="M27 2V26Q27 27 26 27H2" fill="none" stroke="#76909c" stroke-opacity=".45" stroke-width="17" stroke-linecap="round" stroke-linejoin="round"/></g><g transform="translate(378 54)"><path d="M52 27H28Q27 27 27 26V2" fill="none" stroke="#10171c" stroke-width="35" stroke-linecap="round" stroke-linejoin="round"/><path d="M52 27H28Q27 27 27 26V2" fill="none" stroke="#33434d" stroke-width="28" stroke-linecap="round" stroke-linejoin="round"/><path d="M52 27H28Q27 27 27 26V2" fill="none" stroke="#76909c" stroke-opacity=".45" stroke-width="17" stroke-linecap="round" stroke-linejoin="round"/></g><g transform="translate(0 108)"><use href="#machine"/><path d="M15 36l9-23 16 7" fill="none" stroke="#d3e0e5" stroke-width="3.2" stroke-linecap="round"/><path d="M22 14l13-4 8 7" fill="none" stroke="#d3e0e5" stroke-width="2.3"/><circle cx="16" cy="35" r="4" fill="#efb85b"/></g><g transform="translate(54 108)"><use href="#machine"/><path d="M15 36l9-23 16 7" fill="none" stroke="#d3e0e5" stroke-width="3.2" stroke-linecap="round"/><path d="M22 14l13-4 8 7" fill="none" stroke="#d3e0e5" stroke-width="2.3"/><circle cx="16" cy="35" r="4" fill="#efb85b"/><path d="M34 12l5 4-4 4 6 4" fill="none" stroke="#a7effa" stroke-width="1.6" filter="url(#glow)"/></g><g transform="translate(162 162)"><use href="#machine"/><path d="M15 36l9-23 16 7" fill="none" stroke="#d3e0e5" stroke-width="3.2" stroke-linecap="round"/><path d="M22 14l13-4 8 7" fill="none" stroke="#d3e0e5" stroke-width="2.3"/><circle cx="16" cy="35" r="4" fill="#72d9e9"/></g><g transform="translate(216 162)"><use href="#machine"/><path d="M15 36l9-23 16 7" fill="none" stroke="#d3e0e5" stroke-width="3.2" stroke-linecap="round"/><path d="M22 14l13-4 8 7" fill="none" stroke="#d3e0e5" stroke-width="2.3"/><circle cx="16" cy="35" r="4" fill="#72d9e9"/><path d="M34 12l5 4-4 4 6 4" fill="none" stroke="#a7effa" stroke-width="1.6" filter="url(#glow)"/></g><g transform="translate(108 108)"><use href="#machine"/><circle cx="27" cy="27" r="13" fill="#070b0e" stroke="#946b55" stroke-width="1.7"/><circle cx="27" cy="27" r="5" fill="#ff7b38" opacity=".28"/><rect x="37" y="3" width="8" height="18" rx="2" fill="#946b55" opacity=".8"/></g><g transform="translate(162 108)"><use href="#machine"/><circle cx="27" cy="27" r="13" fill="#070b0e" stroke="#946b55" stroke-width="1.7"/><circle cx="27" cy="27" r="9" fill="#ff7b38" filter="url(#glow)"/><circle cx="27" cy="27" r="4" fill="#fff0a6"/><rect x="37" y="3" width="8" height="18" rx="2" fill="#946b55" opacity=".8"/></g><g transform="translate(270 162)"><use href="#machine"/><circle cx="27" cy="27" r="13" fill="#070b0e" stroke="#72d9e9" stroke-width="1.7"/><circle cx="27" cy="27" r="5" fill="#72d9e9" opacity=".28"/><rect x="37" y="3" width="8" height="18" rx="2" fill="#72d9e9" opacity=".8"/></g><g transform="translate(324 162)"><use href="#machine"/><circle cx="27" cy="27" r="13" fill="#070b0e" stroke="#72d9e9" stroke-width="1.7"/><circle cx="27" cy="27" r="9" fill="#72d9e9" filter="url(#glow)"/><circle cx="27" cy="27" r="4" fill="#fff0a6"/><rect x="37" y="3" width="8" height="18" rx="2" fill="#72d9e9" opacity=".8"/></g><g transform="translate(216 108)"><use href="#machine"/><circle cx="27" cy="27" r="11" fill="#11252b" stroke="#b9e8ed" stroke-width="2"/><path d="M27 13v5" transform="rotate(0 27 27)" stroke="#c9eff3" stroke-width="2.5"/><path d="M27 13v5" transform="rotate(45 27 27)" stroke="#c9eff3" stroke-width="2.5"/><path d="M27 13v5" transform="rotate(90 27 27)" stroke="#c9eff3" stroke-width="2.5"/><path d="M27 13v5" transform="rotate(135 27 27)" stroke="#c9eff3" stroke-width="2.5"/><path d="M27 13v5" transform="rotate(180 27 27)" stroke="#c9eff3" stroke-width="2.5"/><path d="M27 13v5" transform="rotate(225 27 27)" stroke="#c9eff3" stroke-width="2.5"/><path d="M27 13v5" transform="rotate(270 27 27)" stroke="#c9eff3" stroke-width="2.5"/><path d="M27 13v5" transform="rotate(315 27 27)" stroke="#c9eff3" stroke-width="2.5"/><circle cx="27" cy="27" r="4" fill="#72d9e9" opacity="0.4"/></g><g transform="translate(270 108)"><use href="#machine"/><circle cx="27" cy="27" r="11" fill="#11252b" stroke="#b9e8ed" stroke-width="2"/><path d="M27 13v5" transform="rotate(0 27 27)" stroke="#c9eff3" stroke-width="2.5"/><path d="M27 13v5" transform="rotate(45 27 27)" stroke="#c9eff3" stroke-width="2.5"/><path d="M27 13v5" transform="rotate(90 27 27)" stroke="#c9eff3" stroke-width="2.5"/><path d="M27 13v5" transform="rotate(135 27 27)" stroke="#c9eff3" stroke-width="2.5"/><path d="M27 13v5" transform="rotate(180 27 27)" stroke="#c9eff3" stroke-width="2.5"/><path d="M27 13v5" transform="rotate(225 27 27)" stroke="#c9eff3" stroke-width="2.5"/><path d="M27 13v5" transform="rotate(270 27 27)" stroke="#c9eff3" stroke-width="2.5"/><path d="M27 13v5" transform="rotate(315 27 27)" stroke="#c9eff3" stroke-width="2.5"/><circle cx="27" cy="27" r="4" fill="#72d9e9" opacity="1"/></g><g transform="translate(324 108)"><use href="#machine"/><rect x="10" y="19" width="34" height="19" rx="3" fill="#755334" stroke="#d0a46b"/><path d="M10 26h34" stroke="#d0a46b" stroke-width="4"/><rect x="24" y="24" width="6" height="10" rx="1" fill="#efd49c"/></g><g transform="translate(378 108)"><use href="#machine"/><path d="M12 27h14l15-12M26 27l15 12" fill="none" stroke="#c0b8ec" stroke-width="3.5" stroke-linecap="round"/><circle cx="26" cy="27" r="5" fill="#7f74be"/></g><g transform="translate(0 162)"><use href="#machine"/><circle cx="27" cy="27" r="16" fill="#102c35" stroke="#72d9e9" stroke-width="2" filter="url(#glow)"/><circle cx="27" cy="27" r="9" fill="#265f6b" stroke="#e0fcff"/><circle cx="27" cy="27" r="3" fill="#e4ffff"/></g><g transform="translate(54 162)"><use href="#machine"/><circle cx="27" cy="27" r="14" fill="#0d151a" stroke="#8ea3ad" stroke-width="2"/><path d="M27 27l0-10" transform="rotate(0 27 27)" stroke="#b8c8cf" stroke-width="2"/><path d="M27 27l0-10" transform="rotate(60 27 27)" stroke="#b8c8cf" stroke-width="2"/><path d="M27 27l0-10" transform="rotate(120 27 27)" stroke="#b8c8cf" stroke-width="2"/><path d="M27 27l0-10" transform="rotate(180 27 27)" stroke="#b8c8cf" stroke-width="2"/><path d="M27 27l0-10" transform="rotate(240 27 27)" stroke="#b8c8cf" stroke-width="2"/><path d="M27 27l0-10" transform="rotate(300 27 27)" stroke="#b8c8cf" stroke-width="2"/><circle cx="27" cy="27" r="4" fill="#efb85b" opacity="0.3" filter="url(#glow)"/></g><g transform="translate(108 162)"><use href="#machine"/><circle cx="27" cy="27" r="14" fill="#0d151a" stroke="#8ea3ad" stroke-width="2"/><path d="M27 27l0-10" transform="rotate(0 27 27)" stroke="#b8c8cf" stroke-width="2"/><path d="M27 27l0-10" transform="rotate(60 27 27)" stroke="#b8c8cf" stroke-width="2"/><path d="M27 27l0-10" transform="rotate(120 27 27)" stroke="#b8c8cf" stroke-width="2"/><path d="M27 27l0-10" transform="rotate(180 27 27)" stroke="#b8c8cf" stroke-width="2"/><path d="M27 27l0-10" transform="rotate(240 27 27)" stroke="#b8c8cf" stroke-width="2"/><path d="M27 27l0-10" transform="rotate(300 27 27)" stroke="#b8c8cf" stroke-width="2"/><circle cx="27" cy="27" r="4" fill="#efb85b" opacity="1" filter="url(#glow)"/></g><g transform="translate(378 162)"><rect x="2" y="2" width="50" height="50" rx="5" fill="none" stroke="#72d9e9" stroke-width="2"/><path d="M4 12V4h8M42 4h8v8M4 42v8h8M42 50h8v-8" fill="none" stroke="#d8fbff" stroke-width="2"/></g><g transform="translate(0 216)"><g style="color:#8fa7b5"><use href="#item"/></g></g><g transform="translate(54 216)"><g style="color:#d17d51"><use href="#item"/></g></g><g transform="translate(108 216)"><g style="color:#42494d"><use href="#item"/></g></g><g transform="translate(162 216)"><g style="color:#c4d0d7"><use href="#item"/></g></g><g transform="translate(216 216)"><g style="color:#e49361"><use href="#item"/></g></g><g transform="translate(270 216)"><g style="color:#d5e0e5"><use href="#item"/></g></g><g transform="translate(324 216)"><g style="color:#efb17c"><use href="#item"/></g></g><g transform="translate(378 216)"><g style="color:#70d597"><use href="#item"/></g></g><g transform="translate(0 270)"><g style="color:#64d8f0"><use href="#item"/></g></g><g transform="translate(54 270)"><circle cx="27" cy="27" r="20" fill="#87979e" opacity=".08"/><circle cx="27" cy="27" r="13" fill="#87979e" opacity=".13"/><circle cx="27" cy="27" r="7" fill="#87979e" opacity=".22"/></g><g transform="translate(108 270)"><path d="M27 4l5 17 16-4-13 11 10 16-17-9-9 14 1-17-16-4 17-6z" fill="#ffd064" filter="url(#glow)"/></g><g transform="translate(162 270)"><circle cx="27" cy="27" r="25" fill="#72d9e9" opacity=".04"/><circle cx="27" cy="27" r="17" fill="#72d9e9" opacity=".09"/><circle cx="27" cy="27" r="8" fill="#72d9e9" opacity=".22"/></g><g transform="translate(216 270)"><g transform="rotate(270 27 27)"><path d="M40 27L22 15v8H10v8h12v8z" fill="#72d9e9" stroke="#dffcff" stroke-opacity=".7"/></g></g><g transform="translate(270 270)"><g transform="rotate(0 27 27)"><path d="M40 27L22 15v8H10v8h12v8z" fill="#72d9e9" stroke="#dffcff" stroke-opacity=".7"/></g></g><g transform="translate(324 270)"><g transform="rotate(90 27 27)"><path d="M40 27L22 15v8H10v8h12v8z" fill="#72d9e9" stroke="#dffcff" stroke-opacity=".7"/></g></g><g transform="translate(378 270)"><g transform="rotate(180 27 27)"><path d="M40 27L22 15v8H10v8h12v8z" fill="#72d9e9" stroke="#dffcff" stroke-opacity=".7"/></g></g></svg>