<svg xmlns="http://www.w3.org/2000/svg" width="432" height="324" viewBox="0 0 432 324">
<defs>
 <linearGradient id="gMetal" x1="0" y1="0" x2="0" y2="1"><stop stop-color="#4c5f6b"/><stop offset=".5" stop-color="#2b3941"/><stop offset="1" stop-color="#141c22"/></linearGradient>
 <linearGradient id="gPanel" x1="0" y1="0" x2="0" y2="1"><stop stop-color="#1d2830"/><stop offset="1" stop-color="#0e161b"/></linearGradient>
 <linearGradient id="gCyan" x1="0" y1="0" x2="0" y2="1"><stop stop-color="#2b5f6c"/><stop offset="1" stop-color="#122a31"/></linearGradient>
 <linearGradient id="gBurn" x1="0" y1="0" x2="0" y2="1"><stop stop-color="#ffd270"/><stop offset="1" stop-color="#ef5f28"/></linearGradient>
 <linearGradient id="gWood" x1="0" y1="0" x2="0" y2="1"><stop stop-color="#7d5c3a"/><stop offset="1" stop-color="#4a3320"/></linearGradient>
 <linearGradient id="gGen" x1="0" y1="0" x2="0" y2="1"><stop stop-color="#556570"/><stop offset="1" stop-color="#1c262c"/></linearGradient>
 <radialGradient id="gSphere" cx=".36" cy=".3" r=".85"><stop offset="0" stop-color="#ffffff" stop-opacity=".55"/><stop offset=".45" stop-color="#ffffff" stop-opacity="0"/><stop offset="1" stop-color="#000000" stop-opacity=".45"/></radialGradient>
 <filter id="glow" x="-40%" y="-40%" width="180%" height="180%"><feGaussianBlur stdDeviation="2.1" result="b"/><feMerge><feMergeNode in="b"/><feMergeNode in="SourceGraphic"/></feMerge></filter>

 <g id="tile"><rect width="54" height="54" fill="#101820"/><rect width="54" height="54" fill="url(#gPanel)" opacity=".5"/><path d="M0 53.5H54M53.5 0V54" stroke="#66808c" stroke-opacity=".14"/><circle cx="8" cy="10" r=".8" fill="#8299a4" opacity=".2"/><circle cx="38" cy="17" r=".6" fill="#8299a4" opacity=".16"/><circle cx="20" cy="42" r=".7" fill="#8299a4" opacity=".13"/><circle cx="45" cy="38" r=".6" fill="#8299a4" opacity=".12"/></g>

 <g id="machine">
  <ellipse cx="27" cy="46" rx="21" ry="6.5" fill="#000" opacity=".42"/>
  <rect x="5" y="5" width="44" height="42" rx="7" fill="url(#gMetal)" stroke="#0b1216" stroke-width="1.5"/>
  <rect x="6.5" y="6.5" width="41" height="10" rx="5" fill="#ffffff" opacity=".07"/>
  <rect x="9" y="9" width="36" height="34" rx="5" fill="url(#gPanel)" stroke="#5c7079" stroke-opacity=".45"/>
  <circle cx="10" cy="10" r="1.3" fill="#94a9b2"/><circle cx="44" cy="10" r="1.3" fill="#94a9b2"/>
  <circle cx="10" cy="42" r="1.3" fill="#65787f"/><circle cx="44" cy="42" r="1.3" fill="#65787f"/>
 </g>

 <g id="beltbase"><rect x="2" y="9" width="50" height="36" rx="6" fill="#0c1216"/><rect x="4" y="11" width="46" height="32" rx="5" fill="#212c33" stroke="#4a5d67" stroke-width="1.3"/><rect x="4" y="14" width="46" height="4" fill="#78909c" opacity=".4"/><rect x="4" y="36" width="46" height="4" fill="#78909c" opacity=".3"/></g>

 <g id="sphere"><circle cx="27" cy="29" r="16" fill="#000" opacity=".32"/><circle cx="27" cy="27" r="15" fill="currentColor"/><circle cx="27" cy="27" r="15" fill="url(#gSphere)"/><circle cx="27" cy="27" r="15" fill="none" stroke="#05090c" stroke-width="1.6"/></g>
</defs>

<!-- Row 0: terrain -->
<g transform="translate(0 0)"><use href="#tile"/></g>
<g transform="translate(54 0)"><use href="#tile"/><rect width="54" height="54" fill="#23303a" opacity=".28"/></g>
<g transform="translate(108 0)"><use href="#tile"/><rect width="54" height="54" fill="#31404b" opacity=".26"/><path d="M6 30l10-6 9 5" fill="none" stroke="#4a5d68" stroke-opacity=".4"/></g>
<g transform="translate(162 0)"><use href="#tile"/><rect width="54" height="54" fill="#8fa7b5" opacity=".14"/><g fill="#9db3c0" stroke="#0e161b" stroke-width=".7"><circle cx="12" cy="14" r="3.2"/><circle cx="30" cy="11" r="2.4"/><circle cx="41" cy="20" r="3.4"/><circle cx="18" cy="30" r="2.6"/><circle cx="33" cy="28" r="3.6"/><circle cx="45" cy="38" r="2.6"/><circle cx="13" cy="43" r="3.2"/><circle cx="29" cy="43" r="2.5"/></g><g fill="#c4d5df" opacity=".7"><circle cx="11" cy="13" r="1"/><circle cx="40" cy="19" r="1.1"/><circle cx="32" cy="27" r="1.2"/></g></g>
<g transform="translate(216 0)"><use href="#tile"/><rect width="54" height="54" fill="#d17d51" opacity=".14"/><g fill="#d6824f" stroke="#0e161b" stroke-width=".7"><circle cx="12" cy="14" r="3.2"/><circle cx="30" cy="11" r="2.4"/><circle cx="41" cy="20" r="3.4"/><circle cx="18" cy="30" r="2.6"/><circle cx="33" cy="28" r="3.6"/><circle cx="45" cy="38" r="2.6"/><circle cx="13" cy="43" r="3.2"/><circle cx="29" cy="43" r="2.5"/></g><g fill="#f0b489" opacity=".7"><circle cx="11" cy="13" r="1"/><circle cx="40" cy="19" r="1.1"/><circle cx="32" cy="27" r="1.2"/></g></g>
<g transform="translate(270 0)"><use href="#tile"/><rect width="54" height="54" fill="#2e353a" opacity=".3"/><g fill="#3a4145" stroke="#05090c" stroke-width=".7"><circle cx="12" cy="14" r="3.2"/><circle cx="30" cy="11" r="2.4"/><circle cx="41" cy="20" r="3.4"/><circle cx="18" cy="30" r="2.6"/><circle cx="33" cy="28" r="3.6"/><circle cx="45" cy="38" r="2.6"/><circle cx="13" cy="43" r="3.2"/><circle cx="29" cy="43" r="2.5"/></g><g fill="#6b757a" opacity=".55"><circle cx="11" cy="13" r=".9"/><circle cx="40" cy="19" r="1"/><circle cx="32" cy="27" r="1.1"/></g></g>
<g transform="translate(324 0)"><use href="#tile"/><path d="M7 40l12-11 8 10 13-15 8 7" fill="none" stroke="#7b8e98" stroke-opacity=".4" stroke-width="1.5"/><path d="M14 20l6 5" stroke="#6a7d86" stroke-opacity=".35" stroke-width="1.4"/></g>
<g transform="translate(378 0)"><use href="#tile"/></g>

<!-- Row 1: belts (H0,H1,V0,V1) + corners (SE,SW,NW,NE) -->
<g transform="translate(0 54)"><use href="#beltbase"/><g fill="#7fd8e6" opacity=".9"><path d="M8 22l8 5-8 5z"/><path d="M24 22l8 5-8 5z"/><path d="M40 22l8 5-8 5z"/></g></g>
<g transform="translate(54 54)"><use href="#beltbase"/><g fill="#7fd8e6" opacity=".9"><path d="M16 22l8 5-8 5z"/><path d="M32 22l8 5-8 5z"/><path d="M0 22l8 5-8 5z"/></g></g>
<g transform="translate(108 54)"><g transform="rotate(90 27 27)"><use href="#beltbase"/><g fill="#7fd8e6" opacity=".9"><path d="M8 22l8 5-8 5z"/><path d="M24 22l8 5-8 5z"/><path d="M40 22l8 5-8 5z"/></g></g></g>
<g transform="translate(162 54)"><g transform="rotate(90 27 27)"><use href="#beltbase"/><g fill="#7fd8e6" opacity=".9"><path d="M16 22l8 5-8 5z"/><path d="M32 22l8 5-8 5z"/><path d="M0 22l8 5-8 5z"/></g></g></g>
<g transform="translate(216 54)"><path d="M27 52V28Q27 27 28 27H52" fill="none" stroke="#0c1216" stroke-width="38" stroke-linecap="round" stroke-linejoin="round"/><path d="M27 52V28Q27 27 28 27H52" fill="none" stroke="#232f36" stroke-width="30" stroke-linecap="round" stroke-linejoin="round"/><path d="M27 52V28Q27 27 28 27H52" fill="none" stroke="#7fd8e6" stroke-opacity=".55" stroke-width="4" stroke-linecap="round"/></g>
<g transform="translate(270 54)"><path d="M2 27H26Q27 27 27 28V52" fill="none" stroke="#0c1216" stroke-width="38" stroke-linecap="round" stroke-linejoin="round"/><path d="M2 27H26Q27 27 27 28V52" fill="none" stroke="#232f36" stroke-width="30" stroke-linecap="round" stroke-linejoin="round"/><path d="M2 27H26Q27 27 27 28V52" fill="none" stroke="#7fd8e6" stroke-opacity=".55" stroke-width="4" stroke-linecap="round"/></g>
<g transform="translate(324 54)"><path d="M27 2V26Q27 27 26 27H2" fill="none" stroke="#0c1216" stroke-width="38" stroke-linecap="round" stroke-linejoin="round"/><path d="M27 2V26Q27 27 26 27H2" fill="none" stroke="#232f36" stroke-width="30" stroke-linecap="round" stroke-linejoin="round"/><path d="M27 2V26Q27 27 26 27H2" fill="none" stroke="#7fd8e6" stroke-opacity=".55" stroke-width="4" stroke-linecap="round"/></g>
<g transform="translate(378 54)"><path d="M52 27H28Q27 27 27 26V2" fill="none" stroke="#0c1216" stroke-width="38" stroke-linecap="round" stroke-linejoin="round"/><path d="M52 27H28Q27 27 27 26V2" fill="none" stroke="#232f36" stroke-width="30" stroke-linecap="round" stroke-linejoin="round"/><path d="M52 27H28Q27 27 27 26V2" fill="none" stroke="#7fd8e6" stroke-opacity=".55" stroke-width="4" stroke-linecap="round"/></g>

<!-- Row 2: miner idle/active, furnace idle/active, assembler idle/active, chest, splitter -->
<g transform="translate(0 108)"><use href="#machine"/><path d="M16 37l9-24 15 7" fill="none" stroke="#d7e4e9" stroke-width="3.4" stroke-linecap="round"/><path d="M23 15l12-4 8 7" fill="none" stroke="#aebdc4" stroke-width="2.4"/><circle cx="17" cy="36" r="4.2" fill="#efb85b"/><circle cx="17" cy="36" r="1.7" fill="#fff2cc"/></g>
<g transform="translate(54 108)"><use href="#machine"/><path d="M16 37l9-24 15 7" fill="none" stroke="#d7e4e9" stroke-width="3.4" stroke-linecap="round"/><path d="M23 15l12-4 8 7" fill="none" stroke="#aebdc4" stroke-width="2.4"/><circle cx="17" cy="36" r="4.6" fill="#ffcf6b" filter="url(#glow)"/><circle cx="17" cy="36" r="1.9" fill="#fff6da"/><path d="M35 13l5 4-4 4 6 4" fill="none" stroke="#a7effa" stroke-width="1.7" filter="url(#glow)"/></g>
<g transform="translate(108 108)"><use href="#machine"/><circle cx="27" cy="28" r="13" fill="#070b0e" stroke="#9a6f57" stroke-width="1.8"/><circle cx="27" cy="28" r="6" fill="#ff7b38" opacity=".26"/><rect x="36" y="4" width="8" height="17" rx="2" fill="#8a6350"/><rect x="37" y="5" width="6" height="6" rx="1" fill="#4a352a"/></g>
<g transform="translate(162 108)"><use href="#machine"/><circle cx="27" cy="28" r="13" fill="#070b0e" stroke="#9a6f57" stroke-width="1.8"/><circle cx="27" cy="28" r="9.5" fill="url(#gBurn)" filter="url(#glow)"/><circle cx="27" cy="26" r="4" fill="#fff2c0"/><rect x="36" y="4" width="8" height="17" rx="2" fill="#8a6350"/><path d="M39 6q-3 -5 0 -6" fill="none" stroke="#c9d6db" stroke-width="1.4" opacity=".5"/></g>
<g transform="translate(216 108)"><use href="#machine"/><circle cx="27" cy="27" r="11.5" fill="#122a31" stroke="#bce9ee" stroke-width="2"/><g stroke="#cbeff3" stroke-width="2.5"><path d="M27 13.5v5"/><path d="M40.5 27h-5"/><path d="M27 40.5v-5"/><path d="M13.5 27h5"/><path d="M36.5 17.5l-3.5 3.5"/><path d="M36.5 36.5l-3.5-3.5"/><path d="M17.5 36.5l3.5-3.5"/><path d="M17.5 17.5l3.5 3.5"/></g><circle cx="27" cy="27" r="4" fill="#72d9e9" opacity=".35"/></g>
<g transform="translate(270 108)"><use href="#machine"/><g transform="rotate(20 27 27)"><circle cx="27" cy="27" r="11.5" fill="#122a31" stroke="#bce9ee" stroke-width="2"/><g stroke="#e2fbff" stroke-width="2.5"><path d="M27 13.5v5"/><path d="M40.5 27h-5"/><path d="M27 40.5v-5"/><path d="M13.5 27h5"/><path d="M36.5 17.5l-3.5 3.5"/><path d="M36.5 36.5l-3.5-3.5"/><path d="M17.5 36.5l3.5-3.5"/><path d="M17.5 17.5l3.5 3.5"/></g></g><circle cx="27" cy="27" r="4.5" fill="#72d9e9" filter="url(#glow)"/></g>
<g transform="translate(324 108)"><ellipse cx="27" cy="46" rx="20" ry="6" fill="#000" opacity=".4"/><rect x="8" y="16" width="38" height="26" rx="4" fill="url(#gWood)" stroke="#2c1f13" stroke-width="1.5"/><rect x="8" y="16" width="38" height="7" rx="4" fill="#8a6740" opacity=".7"/><path d="M8 27h38" stroke="#c79c63" stroke-width="3"/><rect x="24" y="24" width="6" height="9" rx="1" fill="#e6cf9d"/><circle cx="27" cy="20" r="1.6" fill="#e6cf9d"/></g>
<g transform="translate(378 108)"><use href="#machine"/><path d="M12 27h13l14-11" fill="none" stroke="#c3bbef" stroke-width="3.6" stroke-linecap="round"/><path d="M25 27l14 11" fill="none" stroke="#8a7ec8" stroke-width="3.6" stroke-linecap="round"/><circle cx="24" cy="27" r="5" fill="#7f74be" stroke="#d7d1f4"/><circle cx="40" cy="16" r="2.4" fill="#c3bbef"/><circle cx="40" cy="38" r="2.4" fill="#8a7ec8"/></g>

<!-- Row 3: hub, generator idle/active, e-miner idle/active, e-furnace idle/active, selection -->
<g transform="translate(0 162)"><ellipse cx="27" cy="47" rx="22" ry="6.5" fill="#000" opacity=".45"/><rect x="6" y="6" width="42" height="42" rx="9" fill="url(#gMetal)" stroke="#0b1216" stroke-width="1.6"/><rect x="10" y="10" width="34" height="34" rx="7" fill="url(#gCyan)" stroke="#3f8494" stroke-width="1.2"/><circle cx="27" cy="27" r="13" fill="none" stroke="#72d9e9" stroke-width="1.6" opacity=".7"/><circle cx="27" cy="27" r="8" fill="#123039" stroke="#bdf3fa"/><circle cx="27" cy="27" r="3.2" fill="#e6ffff" filter="url(#glow)"/><g fill="#72d9e9"><rect x="25.5" y="3" width="3" height="5"/><rect x="25.5" y="46" width="3" height="5"/><rect x="3" y="25.5" width="5" height="3"/><rect x="46" y="25.5" width="5" height="3"/></g></g>
<g transform="translate(54 162)"><use href="#machine"/><rect x="12" y="18" width="17" height="22" rx="2" fill="#151d22" stroke="#5c6f78"/><rect x="15" y="21" width="11" height="7" rx="1" fill="#60463a"/><circle cx="38" cy="27" r="9" fill="#0e161b" stroke="#7d9099" stroke-width="1.6"/><g stroke="#9fb2ba" stroke-width="1.8"><path d="M38 27v-8"/><path d="M38 27l6.9 4"/><path d="M38 27l-6.9 4"/></g><rect x="33" y="6" width="6" height="10" rx="2" fill="#5c6f78"/></g>
<g transform="translate(108 162)"><use href="#machine"/><rect x="12" y="18" width="17" height="22" rx="2" fill="#151d22" stroke="#5c6f78"/><rect x="15" y="21" width="11" height="7" rx="1" fill="#ff7b38" filter="url(#glow)"/><g transform="rotate(30 38 27)"><circle cx="38" cy="27" r="9" fill="#0e161b" stroke="#bdeef4" stroke-width="1.6"/><g stroke="#d6f6fa" stroke-width="1.8"><path d="M38 27v-8"/><path d="M38 27l6.9 4"/><path d="M38 27l-6.9 4"/></g></g><rect x="33" y="6" width="6" height="10" rx="2" fill="#72d9e9" opacity=".8" filter="url(#glow)"/></g>
<g transform="translate(162 162)"><use href="#machine"/><path d="M16 37l9-24 15 7" fill="none" stroke="#d7e4e9" stroke-width="3.4" stroke-linecap="round"/><path d="M23 15l12-4 8 7" fill="none" stroke="#aebdc4" stroke-width="2.4"/><circle cx="17" cy="36" r="4.2" fill="#72d9e9"/><rect x="30" y="12" width="12" height="4" rx="1" fill="#72d9e9" opacity=".55"/></g>
<g transform="translate(216 162)"><use href="#machine"/><path d="M16 37l9-24 15 7" fill="none" stroke="#d7e4e9" stroke-width="3.4" stroke-linecap="round"/><path d="M23 15l12-4 8 7" fill="none" stroke="#aebdc4" stroke-width="2.4"/><circle cx="17" cy="36" r="4.6" fill="#72d9e9" filter="url(#glow)"/><circle cx="17" cy="36" r="1.9" fill="#e6ffff"/><path d="M34 12l5 4-4 4 6 4" fill="none" stroke="#a7effa" stroke-width="1.7" filter="url(#glow)"/></g>
<g transform="translate(270 162)"><use href="#machine"/><circle cx="27" cy="27" r="13" fill="#0b1c22" stroke="#72d9e9" stroke-width="1.7"/><circle cx="27" cy="27" r="6" fill="#72d9e9" opacity=".25"/><rect x="36" y="4" width="8" height="17" rx="2" fill="#3f6d78"/></g>
<g transform="translate(324 162)"><use href="#machine"/><circle cx="27" cy="27" r="13" fill="#0b1c22" stroke="#72d9e9" stroke-width="1.7"/><circle cx="27" cy="27" r="9.5" fill="#72d9e9" filter="url(#glow)"/><circle cx="27" cy="27" r="4" fill="#eaffff"/><rect x="36" y="4" width="8" height="17" rx="2" fill="#72d9e9" opacity=".85"/></g>
<g transform="translate(378 162)"><rect x="3" y="3" width="48" height="48" rx="6" fill="none" stroke="#72d9e9" stroke-width="2" stroke-opacity=".8"/><path d="M4 14V4h10M40 4h10v10M4 40v10h10M40 50h10v-10" fill="none" stroke="#d8fbff" stroke-width="2.6" stroke-linecap="round"/></g>

<!-- Row 4: item spheres (iron ore, copper ore, coal, iron plate, copper plate, gear, wire, circuit) -->
<g transform="translate(0 216)"><g style="color:#8fa7b5"><use href="#sphere"/></g></g>
<g transform="translate(54 216)"><g style="color:#d17d51"><use href="#sphere"/></g></g>
<g transform="translate(108 216)"><g style="color:#3d444a"><use href="#sphere"/></g></g>
<g transform="translate(162 216)"><g style="color:#c4d0d7"><use href="#sphere"/></g><rect x="18" y="24" width="18" height="7" rx="1.5" fill="#e7eef1" opacity=".5"/></g>
<g transform="translate(216 216)"><g style="color:#e49361"><use href="#sphere"/></g><rect x="18" y="24" width="18" height="7" rx="1.5" fill="#ffcba0" opacity=".5"/></g>
<g transform="translate(270 216)"><g style="color:#d5e0e5"><use href="#sphere"/></g><g fill="none" stroke="#1a2228" stroke-width="2" opacity=".55"><circle cx="27" cy="27" r="6"/><path d="M27 18v-3M27 39v-3M18 27h-3M39 27h3M20.5 20.5l-2-2M33.5 33.5l2 2M33.5 20.5l2-2M20.5 33.5l-2 2"/></g></g>
<g transform="translate(324 216)"><g style="color:#efb17c"><use href="#sphere"/></g><path d="M18 32c4-8 14-8 18 0" fill="none" stroke="#7a4a28" stroke-width="2" opacity=".6"/></g>
<g transform="translate(378 216)"><g style="color:#70d597"><use href="#sphere"/></g><g stroke="#123322" stroke-width="1.8" opacity=".55"><path d="M20 27h14M27 20v14"/></g></g>

<!-- Row 5: science, smoke, spark, glow, arrows N/E/S/W -->
<g transform="translate(0 270)"><g style="color:#64d8f0"><use href="#sphere"/></g><path d="M27 19l2.4 7.4h7.8l-6.3 4.6 2.4 7.4-6.3-4.6-6.3 4.6 2.4-7.4-6.3-4.6h7.8z" fill="#dffaff" opacity=".7"/></g>
<g transform="translate(54 270)"><circle cx="27" cy="27" r="19" fill="#8a99a0" opacity=".1"/><circle cx="27" cy="27" r="12" fill="#8a99a0" opacity=".16"/><circle cx="27" cy="27" r="6" fill="#8a99a0" opacity=".26"/></g>
<g transform="translate(108 270)"><path d="M27 5l4.5 16.5L48 26l-16.5 4.5L27 47l-4.5-16.5L6 26l16.5-4.5z" fill="#ffe08a" filter="url(#glow)"/><circle cx="27" cy="26" r="3" fill="#fff"/></g>
<g transform="translate(162 270)"><circle cx="27" cy="27" r="24" fill="#72d9e9" opacity=".05"/><circle cx="27" cy="27" r="16" fill="#72d9e9" opacity=".1"/><circle cx="27" cy="27" r="8" fill="#72d9e9" opacity=".24"/></g>
<g transform="translate(216 270)"><path d="M27 10l13 20h-8v14h-10V30h-8z" fill="#72d9e9" stroke="#dffcff" stroke-opacity=".65" stroke-width="1.2" filter="url(#glow)"/></g>
<g transform="translate(270 270)"><path d="M44 27l-20 13v-8H10v-10h14v-8z" fill="#72d9e9" stroke="#dffcff" stroke-opacity=".65" stroke-width="1.2" filter="url(#glow)"/></g>
<g transform="translate(324 270)"><path d="M27 44L14 24h8V10h10v14h8z" fill="#72d9e9" stroke="#dffcff" stroke-opacity=".65" stroke-width="1.2" filter="url(#glow)"/></g>
<g transform="translate(378 270)"><path d="M10 27l20-13v8h14v10H30v8z" fill="#72d9e9" stroke="#dffcff" stroke-opacity=".65" stroke-width="1.2" filter="url(#glow)"/></g>
</svg>
